<svg width="140" height="50" viewBox="0 0 150 70" fill="none" xmlns="http://www.w3.org/2000/svg">
<g clip-path="url(#clip0)">
<path d="M0 25.897L6.69428 40.2783L9.36675 37.0345L2.08076 23.2072L0 25.897Z" fill="url(#paint0_linear)"/>
<path d="M99.3944 14.5945L99.1355 16.4902L102.337 15.1754L101.938 12.8532L99.3944 14.5945Z" fill="#0071B9"/>
<path d="M80.7388 1.64774L70.4363 16.6829L73.4344 15.5855L83.2432 0L80.7388 1.64774Z" fill="url(#paint1_linear)"/>
<path d="M135.854 22.2048L138.383 20.4898L137.66 28.5486L135.854 22.2048Z" fill="#1D2C5E"/>
<path d="M120.136 27.3727L122.384 27.9585L125.253 26.1861L122.763 25.0038L120.136 27.3727Z" fill="#1D2C5E"/>
<path d="M42.6383 18.8159L42.9979 28.1547L46.1352 26.5417L45.1961 17.0696L42.6383 18.8159Z" fill="url(#paint2_linear)"/>
<path d="M122.569 16.029L120.044 17.7632L120.136 27.3726L122.678 25.715L123.476 21.0636L122.569 16.029Z" fill="url(#paint3_linear)"/>
<path d="M122.222 27.9854L119.442 59.4172L123.886 58.3014L124.757 26.2902L122.222 27.9854Z" fill="#312370"/>
<path d="M127.665 60.924L127.744 65.1864L136.276 68.647L138.816 66.934L130.444 58.6797L121.963 57.7319L119.442 59.4172L127.665 60.924Z" fill="#21386E"/>
<path d="M96.0127 53.4269L98.1096 51.9896L99.4461 55.1321L101.422 53.75L101.816 57.8927L114.22 60.6923L116.699 58.9574L99.5942 45.694L87.4603 48.3406L85.0935 51.2033L96.0127 53.4269Z" fill="#21386E"/>
<path d="M92.0627 14.7546L89.5795 16.4937L85.0935 51.2033L87.6062 49.5421L91.9124 30.0532L92.0627 14.7546Z" fill="url(#paint4_linear)"/>
<path d="M72.2471 19.4067L70.2688 20.7477L70.4352 21.5871L75.1434 17.7809L73.086 14.9714L70.4363 16.6829L72.2471 19.4067Z" fill="#1D2C5E"/>
<path d="M77.656 60.4068L57.4274 47.6549L59.9668 45.2116L80.1732 58.6769L77.656 60.4068Z" fill="#21386E"/>
<path d="M59.3283 12.9475L56.2629 20.3453L59.502 19.0971L61.8394 11.214L59.3283 12.9475Z" fill="#1D2C5E"/>
<path d="M31.5248 43.5093L28.9386 45.7684C28.9386 45.7684 29.4874 49.4408 30.1949 51.9953C30.9063 54.559 32.5997 56.6183 32.5997 56.6183C33.6874 57.9713 35.0205 58.956 36.5079 59.5086C39.3685 60.5563 42.5971 59.8734 45.3687 57.6242C46.0934 57.0405 47.077 56.1061 47.6815 55.3687C44.9573 57.4726 31.5248 43.5093 31.5248 43.5093Z" fill="url(#paint5_linear)"/>
<path d="M45.3648 27.3932L47.725 60.5294L57.3684 58.7138L59.9485 56.993L47.981 25.4068L45.519 26.4623L42.9979 28.1547L45.3648 27.3932Z" fill="#1D2C5E"/>
<path d="M9.21256 38.9026L19.9871 70L30.2233 65.7977L32.7227 63.6598L11.4765 35.3698L8.81789 37.3972L6.69427 40.2783L9.21256 38.9026Z" fill="url(#paint6_linear)"/>
<path d="M115.995 53.5743L116.14 55.1009C117.022 54.9748 117.948 54.8296 118.741 54.4704C119.665 54.068 121.672 52.9304 122.435 52.0923C122.149 52.2248 117.446 53.7762 115.995 53.5743Z" fill="#1D2C5E"/>
<path d="M79.7802 45.6338L80.1643 48.092C82.2362 47.6995 84.0147 46.724 85.7631 45.3866C86.8603 44.5549 88.0649 43.3003 88.4451 42.966C88.1767 43.1842 79.7802 45.6338 79.7802 45.6338Z" fill="#1D2C5E"/>
<path d="M22.7882 67.0516L21.9882 64.7897L11.7726 35.7743L11.5627 35.1792L11.0985 35.452L10.7884 35.6333L8.96986 36.7696C8.70156 36.1972 8.25624 35.238 7.94674 34.5728L3.83476 25.7292L2.75932 23.4205L4.53837 21.986C6.22112 20.6202 8.12153 19.3585 10.1889 18.235C14.3054 16.0035 18.507 14.8233 22.3384 14.8233C23.5986 14.8233 24.8183 14.953 25.9638 15.2066C27.8737 15.4835 29.64 16.2812 31.0989 17.5181C33.2732 19.0652 34.9849 21.4653 35.9518 24.3046C36.7456 26.638 36.9004 29.371 36.396 32.2061L36.0999 33.8715L37.187 32.8684C37.9196 32.1919 38.7156 31.6139 39.5528 31.1498C41.0001 30.3713 42.4975 29.9739 43.9976 29.9739C45.4177 29.9739 46.7603 30.3316 47.9888 31.0351L48.7809 31.487L48.7013 30.3869L48.3568 25.6328L48.3011 24.8791L47.7244 25.0696L45.9938 25.6406L45.6904 17.5457L58.3676 12.3914L58.2652 18.6827L59.2198 18.9944L61.9886 12.2419L70.281 21.6013L70.6267 21.993L70.964 21.5893C72.1001 20.2305 73.4467 19.1403 74.9658 18.349L75.6004 18.0189L75.1656 17.3438L73.6705 15.0245L83.1908 1.05907L88.1768 10.5269L80.5445 15.7478L78.8495 16.9081L80.7739 16.9599C84.3921 17.0569 87.5962 19.005 89.7944 22.4443L90.5893 23.6918L91.1014 24.493L90.2508 25.642L89.6836 26.4085L87.7765 28.997L87.4219 29.478L87.8055 29.9186L89.5929 31.9666L90.2842 32.7579L90.4323 31.5905L91.1181 26.1875L91.2934 24.8004L91.299 24.8082L91.4794 23.3914L92.503 15.4148H101.642H102.071L102.143 14.8772L102.322 13.5114H110.552L112.546 29.5361L112.675 30.5739L113.343 29.9569C114.151 29.2102 115.043 28.5961 115.996 28.1321C117.265 27.5228 118.571 27.2118 119.875 27.2118C121.427 27.2118 122.933 27.6681 124.237 28.5302C124.271 28.5621 124.32 28.6031 124.387 28.6371L125.005 28.9531L125.078 28.1087L125.227 26.3625L125.276 25.7901L124.834 25.6647L123.165 25.1901L123.084 16.8366L135.807 20.4006L136.763 26.4113L137.751 26.4361L138.737 21.2634L149.347 24.5468L138.504 66.1321L130.745 63.0315L130.69 59.2011L130.683 58.6521L130.255 58.5756L122.513 57.185L122.951 52.1773L123.055 50.9858L122.217 51.532C121.82 51.7891 121.436 52.0052 121.073 52.1752C119.807 52.7844 118.511 53.0926 117.22 53.0926C116.846 53.0926 116.471 53.0664 116.106 53.014L115.445 52.9197L115.548 53.7557L116.093 58.1598L104.798 55.6244L104.207 49.0887L104.016 46.994L103.255 48.8663L101.955 52.0576L99.5608 46.4329L98.8411 44.7434L98.614 46.6419L98.0924 50.9957L88.1929 49.0129L88.9605 43.0375L89.1359 41.6675L88.2001 42.3794C86.5797 43.6156 84.7189 44.5457 82.5128 45.2237C81.7419 45.4631 80.9364 45.6289 80.1165 45.7153L79.6522 45.7649V46.3578V57.6342L60.1567 45.3724L59.4241 44.9127L59.4247 45.9519L59.438 56.4391L50.7214 58.0734L50.3552 53.0373L50.2561 51.69L49.4962 52.6378C48.3445 54.0723 47.047 55.1845 45.6403 55.9439C44.2014 56.7224 42.7168 57.1163 41.2289 57.1163C39.7432 57.1163 38.3471 56.721 37.079 55.9482C34.73 54.5101 33.0355 51.9011 32.3085 48.6091C31.9623 47.0627 31.8682 45.4298 32.0291 43.7537L32.2011 41.9686L31.178 43.2083C30.4566 44.0796 29.6795 44.912 28.8668 45.6763L28.5912 45.9349L28.6781 46.3564L31.6144 60.7001L32.1332 63.2454L30.1671 64.0409L24.6385 66.2937L22.7882 67.0516V67.0516ZM25.2697 28.5458C24.9847 28.5458 24.6902 28.5791 24.3935 28.6471L24.0172 28.7392L23.4617 28.8752L23.6293 29.5637L23.7384 30.0114L25.3192 36.5946L25.4773 37.2272L25.7122 38.1765L26.2967 37.5148L26.6847 37.0749C28.2172 35.3223 28.7543 33.5428 28.4309 31.2986C28.2272 29.9519 27.4078 29.2811 26.9369 29.0006C26.4448 28.6988 25.8815 28.5458 25.2697 28.5458V28.5458ZM67.6503 28.7618L66.6622 29.9859L64.0599 33.2042L63.4932 33.9048L64.2308 34.2675L67.0218 35.6383L67.8791 36.0584L67.702 34.9122C67.4716 33.4316 67.4115 31.9496 67.5195 30.508L67.6503 28.7618ZM79.0148 25.1015C77.9355 25.1015 76.8912 25.6923 76.1492 26.7209C75.0237 28.2851 74.8049 30.5923 75.6054 32.4611L75.8175 32.9676L76.1587 33.7773L76.6391 33.093L76.948 32.6573L80.7655 27.1105L81.0656 26.6713L81.5471 25.9672L80.8601 25.6434L80.4321 25.4423C79.9829 25.2184 79.5019 25.1015 79.0148 25.1015V25.1015Z" fill="#FFCB05"/>
<path d="M84.8547 33.3175C84.8179 33.3586 84.784 33.411 84.755 33.4649C84.7934 33.4203 84.8307 33.3813 84.8703 33.3402L84.8547 33.3175Z" fill="#7D7F68"/>
<path d="M88.1461 29.4376L90.0527 26.8491L89.4003 27.7304L89.4192 27.6192L88.8425 28.3934L86.9376 30.9741L88.7223 33.0172L89.0457 30.4726L89.9341 31.4849L88.1461 29.4376Z" fill="#7D7F68"/>
<path d="M88.1461 29.4376L89.9341 31.4849L90.6188 26.0826L90.0527 26.8491L88.1461 29.4376Z" fill="#7D7F68"/>
<path d="M64.4128 33.6647L64.4417 33.6803L64.4128 33.6647Z" fill="#7D7F68"/>
<path d="M74.968 35.9117C75.1205 36.1079 74.9797 35.967 75.1506 36.1157L76.3167 35.0694C76.1436 34.9136 75.9722 34.7464 75.8146 34.5594C74.1224 32.5971 74.5622 28.1837 75.6599 25.7681C72.7703 28.7349 72.9206 33.3019 74.968 35.9117" fill="#C7A008"/>
<path d="M89.0457 38.3826C87.1197 40.4101 84.9243 41.732 82.0236 42.6238C81.3895 42.8087 80.7683 42.9433 80.1604 43.0113C75.5564 43.5873 71.6938 40.8968 70.2281 36.533C70.0455 36.0045 69.9047 35.4697 69.7984 34.8987C69.1204 31.2235 69.6993 27.9394 71.126 25.365C71.2674 25.1157 71.416 24.877 71.5719 24.634C71.499 24.7133 71.4244 24.7813 71.3637 24.8557C70.8154 25.477 70.33 26.1577 69.9175 26.9016C68.4891 29.4759 67.9102 32.7622 68.5943 36.4317C68.699 37.0027 68.8376 37.5453 69.0163 38.0617C70.4825 42.4354 74.3462 45.1245 78.9464 44.5528C79.5593 44.4777 80.1783 44.3488 80.8128 44.154C83.7169 43.2621 85.9106 41.9459 87.8367 39.9184C88.307 39.4261 88.7607 38.8891 89.201 38.3019L89.1604 38.2523C89.1164 38.3005 89.0835 38.3423 89.0457 38.3826" fill="#C7A008"/>
<path d="M56.5991 27.2728L61.7431 18.0734L61.5344 17.8283L56.5713 26.7004L56.5991 27.2728Z" fill="#C7A008"/>
<path d="M90.6188 26.0826L89.9341 31.4849L89.0457 30.4726L88.7223 33.0172L86.9376 30.9742L88.8425 28.3934L89.4192 27.6192L89.4003 27.7304L90.0527 26.8491L90.6188 26.0826Z" fill="#C7A008"/>
<path d="M84.2624 10.9299L86.0637 9.94666L82.7711 4.56918L81.6923 6.48683L84.2624 10.9299Z" fill="#C7A008"/>
<path d="M34.3926 24.2521C26.0785 11.3628 11.0974 18.2909 5.7129 24.3201L5.92331 24.7827C7.1613 23.8788 8.46665 23.0613 9.8399 22.3281C15.1882 19.4208 20.2871 18.5686 24.3752 19.4789C25.8202 19.69 27.351 20.2355 28.6831 21.3704C30.5273 22.6844 31.925 24.5539 32.7422 26.9497C34.1922 31.193 32.9147 36.8355 29.4997 41.5591C33.7831 36.5571 36.7139 31.7711 34.3926 24.2521Z" fill="#C7A008"/>
<path d="M51.3549 39.2688C51.3159 39.0351 51.277 38.7977 51.2174 38.5689C50.7493 36.426 49.7434 34.7152 48.4247 33.5768C46.2905 31.7321 43.3113 31.3532 40.3421 32.9485C38.7802 33.8078 37.4219 35.1303 36.3481 36.7101C37.1737 35.8062 38.1172 35.0531 39.1364 34.4921C42.0989 32.8918 45.0781 33.2701 47.2195 35.1126C48.5382 36.2525 49.5358 37.9625 50.0139 40.1026C50.0668 40.3321 50.108 40.573 50.1492 40.8146C50.2761 41.6292 50.3351 42.4531 50.3106 43.2968C50.2488 45.7635 49.5302 48.2471 48.3351 50.3681C48.1425 50.7038 47.9398 51.017 47.73 51.3272C48.4102 50.5799 49.0175 49.7532 49.5363 48.8273C50.7364 46.7198 51.4534 44.2312 51.5169 41.7497C51.5436 40.9215 51.4896 40.0842 51.3549 39.2688Z" fill="#C7A008"/>
<path d="M43.1682 36.1228C43.1565 36.1462 44.3745 34.587 44.3606 34.587C42.837 34.5133 42.193 36.3417 42.1401 36.4855C42.4529 36.2928 42.7981 36.1675 43.1682 36.1228" fill="#C7A008"/>
<path d="M46.0378 38.3578C46.0996 38.6206 46.1318 38.882 46.1318 39.1682C46.1318 39.572 46.0611 39.9595 45.9326 40.3166C46.1764 40.1543 47.9382 39.0669 47.2552 36.7632C47.2919 36.8341 45.9938 38.3507 46.0378 38.3578Z" fill="#C7A008"/>
<path d="M39.1075 39.64C39.1075 38.6922 40.3828 36.3927 40.7802 35.6255C38.7662 37.2548 37.899 39.4537 37.899 41.1858C37.899 44.1533 39.948 46.5399 42.3978 46.5399C43.5568 46.5399 45.6793 45.7599 47.0676 42.9008C46.34 43.51 44.4908 44.9679 43.5206 44.9679C41.0713 44.9672 39.1075 42.6238 39.1075 39.64Z" fill="#C7A008"/>
<path d="M56.348 42.3561L56.3798 54.367L57.8777 54.4761L57.5816 40.7841L56.348 42.3561Z" fill="#C7A008"/>
<path d="M47.75 19.4888L47.7806 20.5557L54.8796 17.8659L55.4056 29.3703L56.5902 27.2579L56.3375 15.7131L47.75 19.4888Z" fill="#C7A008"/>
<path d="M69.2095 23.6082L62.5413 15.82L61.7431 18.0734L67.6119 25.0902L69.2095 23.6082Z" fill="#C7A008"/>
<path d="M68.1958 38.1219L60.3671 34.8279L59.2265 36.3608L67.0257 40.3328C67.9102 42.4538 69.2506 44.2708 70.9384 45.5991C72.5722 46.8707 74.4392 47.6322 76.4164 47.8738V52.7759L77.6254 53.5438L78.0079 46.1793L68.1958 38.1219V38.1219Z" fill="#C7A008"/>
<path d="M80.7672 36.7363C82.6898 36.1462 83.7987 34.8697 84.7533 33.4649C84.0369 34.213 80.4454 35.209 79.842 35.469L78.6591 37.0721C79.1996 37.133 80.1037 36.9474 80.7672 36.7363Z" fill="#C7A008"/>
<path d="M77.2703 19.7949C73.725 20.3857 71.8775 24.1735 71.5719 24.6347C72.8811 23.2271 74.5221 22.1822 76.3702 21.6254C80.7572 20.2752 84.6253 21.9774 87.0161 25.7391L88.4957 24.1452C86.1277 20.4487 81.6562 18.4489 77.2703 19.7949" fill="#C7A008"/>
<path d="M89.1609 38.2523C89.5884 37.7947 90.3482 37.3321 90.7524 36.793L86.0053 31.395C85.6418 31.9482 85.3122 32.8599 84.8686 33.3395L89.1609 38.2523V38.2523Z" fill="#C7A008"/>
<path d="M113.522 52.7178C108.542 47.5083 108.84 36.3375 111.284 32.7933L109.09 15.2852L104.291 16.0736L104.077 17.6158H107.709L109.632 33.501C107.185 37.0565 106.002 41.8198 106.82 46.1807C107.453 49.5506 109.08 52.2779 111.421 53.8555C111.656 54.0199 111.9 54.163 112.148 54.2983L112.18 54.5313L113.607 54.8183C113.607 54.8175 113.756 52.8694 113.522 52.7178V52.7178Z" fill="#C7A008"/>
<path d="M94.3801 17.8616L94.1735 19.4045H99.6476L101.26 30.6547L102.475 29.0934L101.198 17.217L94.3801 17.8616Z" fill="#C7A008"/>
<path d="M103.751 39.7017L101.984 45.512L102.421 47.0237L104.949 38.175L103.751 39.7017Z" fill="#C7A008"/>
<path d="M98.5026 36.0421L97.2858 37.5885L95.9815 48.0828L97.2307 48.6899L98.5026 36.0421Z" fill="#C7A008"/>
<path d="M123.088 32.6899C123.805 33.3409 124.416 34.1648 124.876 35.1445C125.239 35.8961 125.513 36.7377 125.688 37.6615C126.284 40.816 125.571 44.2276 123.996 46.9649C123.837 47.2426 123.662 47.5111 123.495 47.7746C124.135 47.074 131.911 39.7753 124.314 30.1893C115.959 26.6841 112.796 33.6215 112.5 34.0614C113.383 33.1065 114.402 32.3166 115.505 31.7796C118.333 30.4167 121.115 30.8892 123.088 32.6899" fill="#C7A008"/>
<path d="M118.876 33.3813C118.899 33.4486 120.076 31.8214 120.1 31.8214C118.613 31.8993 117.899 32.8125 117.972 33.234C117.883 33.3976 117.811 33.5598 117.754 33.7391C118.071 33.5379 118.658 33.3834 118.876 33.3813Z" fill="#C7A008"/>
<path d="M121.672 35.7594C121.725 36.013 121.751 36.2787 121.746 36.5641C121.733 36.9297 121.658 37.2647 121.549 37.5772C121.775 37.4475 123.577 36.7356 122.889 34.2122C122.907 34.2838 121.652 35.7608 121.672 35.7594" fill="#C7A008"/>
<path d="M117.724 43.7714C119.406 43.8628 121.266 42.548 122.599 40.2245C119.177 41.1178 115.58 33.8652 115.94 33.1553C114.647 34.3483 113.503 36.6492 113.45 38.2572C113.361 41.2389 115.269 43.6468 117.724 43.7714Z" fill="#C7A008"/>
<path d="M136.478 62.668L137.281 63.3509L147.071 25.958L139.744 23.803L139.652 25.9934L145.562 27.6624L136.478 62.668Z" fill="#C7A008"/>
<path d="M124.852 19.7949L124.916 21.8832L132.706 23.8745L135.705 41.9763L136.919 40.4193L134.062 22.1312L124.852 19.7949Z" fill="#C7A008"/>
<path d="M130.847 40.4228L128.702 55.8603L129.937 56.3696L132.066 38.9026L130.847 40.4228Z" fill="#C7A008"/>
<path d="M29.7502 61.5247L26.1063 44.7122L24.7726 45.8995L28.1498 62.0064L29.7502 61.5247Z" fill="#C7A008"/>
<path d="M28.8044 36.2433C27.9639 37.3781 26.1008 39.5834 25.0392 40.4533L24.3946 37.8194L22.983 32.0446L22.0856 28.1349L21.21 29.5652L22.104 33.4805L23.5157 39.2511L24.1575 41.8928C25.6109 40.7012 27.7251 38.4648 28.8044 36.2433" fill="#C7A008"/>
<path d="M80.4349 26.3022C79.2848 25.7391 77.6561 25.9084 76.7765 27.1332C76.5723 27.4173 76.1748 28.142 76.049 28.4657C76.9001 27.6043 78.4159 27.418 79.4095 27.8742L80.4349 26.3022V26.3022Z" fill="#7D7F68"/>
<path d="M27.7529 31.5189C27.6238 30.6547 26.9586 29.9682 26.6324 29.7777C26.049 29.4192 25.0398 29.3633 24.3028 29.534C24.4353 30.1163 24.5872 30.7992 24.6518 31.079C24.9507 31.1321 25.4417 31.2455 25.6994 31.3949C26.0228 31.5933 26.5884 32.0608 26.7198 32.9308C26.8957 34.0918 26.8495 35.1771 26.4693 36.0584C27.5119 34.7563 28.0179 33.3402 27.7529 31.5189" fill="#7D7F68"/>
<path d="M29.5787 31.4948C29.0783 28.0775 25.5669 26.1939 22.0857 28.6102L22.983 32.5213L24.3946 38.3012L25.0387 40.9336C27.6505 38.7963 30.2757 36.2284 29.5787 31.4948ZM26.1208 36.7498C25.7406 35.1707 24.9068 31.7612 24.9068 31.7612C24.9107 31.7768 24.7425 31.0315 24.5433 30.1786C25.2814 30.0107 25.9906 30.0787 26.5739 30.4358C26.9001 30.6334 27.4735 31.0946 27.5987 31.9688C27.8871 33.9339 27.3666 35.3365 26.1208 36.7498V36.7498Z" fill="#3C5AA6"/>
<path d="M82.2573 26.0727C80.3113 23.8009 77.2864 23.9773 75.5113 26.4517C73.7256 28.9219 73.8658 32.7735 75.8147 35.0361C75.9733 35.2309 76.1448 35.3903 76.3173 35.5469L82.5947 26.4999C82.4839 26.3525 82.3726 26.2059 82.2573 26.0727V26.0727ZM76.3301 32.4363C75.7161 31.0018 75.8403 29.1805 76.7582 27.9039C77.641 26.6798 78.9937 26.3313 80.1471 26.8973L76.3301 32.4363V32.4363Z" fill="#3567B0"/>
<path d="M90.6449 25.0795L87.1687 29.342L90.4713 33.1163L90.6449 25.0795Z" fill="#1E2D5F"/>
<path d="M122.879 34.2123C122.932 34.4807 122.96 34.7464 122.953 35.029C122.895 36.7193 121.646 38.0242 120.158 37.9356C118.671 37.8704 117.502 36.4338 117.561 34.7478C117.611 33.1674 118.717 31.9163 120.084 31.8363C119.825 31.7619 119.553 31.7229 119.271 31.7102C116.781 31.5735 114.746 33.8177 114.66 36.6116C114.564 39.5997 116.446 42.0358 118.897 42.1712C121.39 42.298 123.424 40.0459 123.523 37.0721C123.552 36.0414 123.313 35.0531 122.879 34.2123Z" fill="#3466AF"/>
<path d="M47.3448 37.6246C47.3448 39.3219 46.1318 40.6821 44.6461 40.6821C43.1565 40.6821 41.9481 39.3212 41.9481 37.6246C41.9481 36.0428 43.0113 34.7386 44.3739 34.587C44.1129 34.5268 43.8412 34.4921 43.5607 34.4921C41.0713 34.4921 39.1075 36.8418 39.1075 39.64C39.1075 42.6259 41.0719 44.9679 43.5206 44.9679C46.0122 44.9679 47.9743 42.6245 47.9743 39.64C47.9743 38.6065 47.706 37.6324 47.2446 36.8305C47.3069 37.0721 47.3448 37.3398 47.3448 37.6246" fill="url(#paint7_linear)"/>
<path d="M138.366 20.4816L137.261 26.2799L136.24 19.8596L122.569 16.03L122.665 25.7039L124.725 26.2919L124.576 28.0367C124.549 28.0233 124.533 28.0027 124.518 27.9878C121.964 26.2728 118.798 26.0971 115.818 27.5295C114.819 28.0162 113.891 28.6559 113.049 29.4337L110.987 12.8656H101.895L101.644 14.7705H92.075L90.9823 23.2876L90.1885 22.0401C87.8695 18.4145 84.5079 16.4175 80.7839 16.3183L88.9088 10.7609L83.2432 0.00100708L73.0069 15.0113L74.7737 17.7528C73.1734 18.5852 71.7751 19.7328 70.6167 21.1192L61.84 11.2093L58.7711 18.6943L58.8892 11.5012L45.1672 17.0799L45.519 26.4619L47.8536 25.6912L48.1987 30.446C45.5312 28.9215 42.3249 28.959 39.3513 30.5579C38.4701 31.0467 37.6485 31.6474 36.8914 32.3459C37.4058 29.4493 37.2839 26.5937 36.4166 24.047C35.3924 21.0377 33.59 18.5505 31.3801 16.9814C29.8309 15.668 27.9845 14.8498 26.0524 14.5714C21.3041 13.5152 15.6024 14.5997 9.99076 17.6423C7.92782 18.7623 6.00348 20.0332 4.26784 21.4401L2.07408 23.2104L3.39891 26.0574L7.51033 34.9004C7.51033 34.9004 8.76836 37.61 8.77671 37.6086L11 36.218L11.31 36.0367L21.5262 65.0535L22.5115 67.8425L24.7927 66.9074L30.3202 64.654L32.7427 63.6743L32.1037 60.5361L29.1679 46.1945C30.0124 45.3989 30.8006 44.5552 31.5281 43.6718C31.3639 45.3855 31.4502 47.1203 31.8209 48.7808C32.5885 52.2577 34.3776 55.0041 36.8603 56.5258C39.5417 58.1657 42.8131 58.17 45.8396 56.5364C47.3576 55.7168 48.7075 54.521 49.8514 53.0978L50.2683 58.8097L59.9485 56.9955L59.9334 45.9494L80.1604 58.6715V46.3531C80.972 46.2667 81.8003 46.1038 82.6331 45.8438C84.8608 45.1588 86.7673 44.2194 88.4612 42.928L87.6118 49.5438L98.5177 51.7278L99.1161 46.7336L101.964 53.4301L103.706 49.1605L104.342 56.1709L116.707 58.945L116.051 53.6511C117.744 53.8948 119.528 53.6058 121.251 52.7783C121.659 52.5864 122.062 52.3526 122.448 52.1018L121.955 57.7343L130.185 59.2121L130.246 63.5071L138.827 66.935L150 24.0803L138.366 20.4816V20.4816ZM90.0527 26.8501L90.6199 26.0829L89.9347 31.4859L88.1473 29.4372L90.0527 26.8501ZM82.8062 4.77918L85.8021 9.9583L77.2369 15.362L76.6452 14.2179L82.8062 4.77918V4.77918ZM26.0896 44.7167L29.5069 61.4031L23.976 63.6516L12.6265 31.3952C12.0092 31.8082 10.8692 32.5011 9.8221 33.1542L5.71235 24.319C7.34667 22.9908 9.13909 21.8134 11.0456 20.7883C16.3961 17.8924 21.5012 17.0281 25.5842 17.9462C27.0287 18.1531 28.5578 18.695 29.8971 19.8263C31.7346 21.1433 33.1402 23.0177 33.9507 25.405C35.9273 31.2181 32.6253 39.5837 26.0896 44.7167V44.7167ZM51.518 41.7471C51.4545 44.2315 50.7376 46.7208 49.5374 48.8269C48.3957 50.8635 46.8009 52.5446 44.9245 53.5725C40.1261 56.1595 35.3278 53.5725 34.0459 47.7749C32.804 42.1693 35.6935 35.4962 40.3427 32.9473C43.3119 31.352 46.291 31.7303 48.4252 33.5757C49.7434 34.7134 50.7487 36.4242 51.218 38.5678C51.277 38.7952 51.3159 39.0339 51.3555 39.2677C51.4896 40.0845 51.5436 40.9218 51.518 41.7471V41.7471ZM77.6255 53.5441L57.5554 40.7695L57.5911 54.1541L52.3992 55.0551L52.0373 49.5381C53.6405 46.04 54.2267 41.9178 53.39 38.1378C52.9308 36.0601 52.0824 34.2565 50.9296 32.8113L50.1848 21.5626L47.8536 22.332L47.7506 19.4877L56.0881 16.3282L56.5991 27.2716L62.7412 16.2893L68.7458 23.5667L60.3487 34.8246L68.2375 38.7959C69.1187 40.9211 70.463 42.7268 72.1497 44.0572C73.7801 45.338 75.6482 46.0953 77.6243 46.3439L77.6255 53.5441ZM67.2044 35.0364L64.4128 33.6657L67.0151 30.4467C66.9038 31.9244 66.9611 33.4694 67.2044 35.0364ZM89.0457 38.3829C87.1197 40.4104 84.9243 41.7322 82.0235 42.6241C81.3895 42.809 80.7683 42.9436 80.1604 43.0116C75.5564 43.5875 71.6938 40.897 70.2281 36.5333C70.0456 36.0048 69.9047 35.47 69.7984 34.899C69.1204 31.2238 69.6993 27.939 71.126 25.3653C71.5368 24.6144 72.0244 23.9301 72.5722 23.3138C73.9159 21.7879 75.6315 20.6785 77.582 20.0821C81.9679 18.7361 85.8305 20.4398 88.1985 24.1377L79.8409 35.4586C80.4076 35.5946 81.3088 35.4055 81.974 35.2029C83.9646 34.5852 85.0784 33.2406 86.0598 31.7757L89.3997 35.5996L90.4117 36.7628C89.9731 37.3401 89.5122 37.8849 89.0457 38.3829V38.3829ZM106.777 53.491L104.959 38.1647L102.387 46.6195L98.5377 36.0523H98.4943L96.973 48.2899L90.5564 46.8689L91.4588 40.0399C91.7009 39.7501 91.9392 39.4597 92.1735 39.1529L94.2532 36.4277L92.232 34.124L94.3795 17.8612H100.853L102.474 29.1191L104.29 16.0725H108.92L110.842 31.9676C108.397 35.5125 107.209 40.2779 108.026 44.6374C108.658 48.0172 110.29 50.7389 112.629 52.3285C112.865 52.4794 113.109 52.6289 113.36 52.7578L113.605 54.8185L106.777 53.491V53.491ZM122.766 48.4975C122.059 49.1386 121.28 49.6833 120.443 50.0765C118.79 50.8777 117.147 51.0442 115.682 50.6737C114.661 50.4172 113.73 49.9107 112.92 49.1775C111.632 47.9917 110.684 46.2405 110.266 44.0416C109.778 41.4 110.227 38.5791 111.344 36.1082C111.901 34.9004 112.615 33.7656 113.46 32.7873C114.402 31.7119 115.495 30.8314 116.711 30.2363C119.54 28.8932 122.331 29.3565 124.295 31.1537C125.018 31.8054 125.617 32.6349 126.09 33.5991C126.448 34.3606 126.726 35.2001 126.895 36.1167C127.497 39.289 126.78 42.6865 125.208 45.4237C124.534 46.5905 123.713 47.6389 122.766 48.4975V48.4975ZM137.214 62.9432L132.469 61.1446L132.056 38.8823L129.669 56.0561L124.493 55.0049L124.864 50.0602C128.244 46.4254 130.036 40.6916 129.054 35.4955C128.622 33.1946 127.693 31.1912 126.382 29.6682L126.819 23.8366L124.862 23.1735L124.993 20.0601L133.911 22.3412L136.91 40.438L139.985 24.2135L146.77 26.1212L137.214 62.9432V62.9432Z" fill="url(#paint8_linear)"/>
<path d="M141.113 65.0528V63.3721H140.62V63.1472H141.807V63.3721H141.312V65.0528H141.113Z" fill="black"/>
<path d="M142.005 65.0528V63.1472H142.303L142.658 64.4964C142.69 64.6221 142.714 64.7161 142.729 64.7785C142.746 64.7092 142.773 64.6074 142.809 64.4731L143.167 63.1472H143.434V65.0528H143.243V63.4579L142.808 65.0528H142.629L142.196 63.4306V65.0528H142.005Z" fill="black"/>
</g>
<defs>
<linearGradient id="paint0_linear" x1="7.40345" y1="37.9165" x2="-0.528743" y2="26.3004" gradientUnits="userSpaceOnUse">
<stop stop-color="#0070B6"/>
<stop offset="1" stop-color="#1D2C5E"/>
</linearGradient>
<linearGradient id="paint1_linear" x1="75.4127" y1="10.9003" x2="84.3096" y2="3.40956" gradientUnits="userSpaceOnUse">
<stop stop-color="#0070B6"/>
<stop offset="1" stop-color="#1D2C5E"/>
</linearGradient>
<linearGradient id="paint2_linear" x1="44.5332" y1="26.9901" x2="43.178" y2="18.0437" gradientUnits="userSpaceOnUse">
<stop stop-color="#0070B6"/>
<stop offset="1" stop-color="#1D2C5E"/>
</linearGradient>
<linearGradient id="paint3_linear" x1="121.849" y1="25.2531" x2="121.304" y2="17.1218" gradientUnits="userSpaceOnUse">
<stop stop-color="#125D9E"/>
<stop offset="1" stop-color="#1D2C5E"/>
</linearGradient>
<linearGradient id="paint4_linear" x1="98.2265" y1="13.5125" x2="87.9928" y2="26.3058" gradientUnits="userSpaceOnUse">
<stop stop-color="#125D9E"/>
<stop offset="1" stop-color="#1D2C5E"/>
</linearGradient>
<linearGradient id="paint5_linear" x1="32.4918" y1="37.6328" x2="39.7679" y2="48.8771" gradientUnits="userSpaceOnUse">
<stop stop-color="#105FA1"/>
<stop offset="1" stop-color="#1D2C5E"/>
</linearGradient>
<linearGradient id="paint6_linear" x1="13.3825" y1="33.3063" x2="22.0342" y2="49.0661" gradientUnits="userSpaceOnUse">
<stop stop-color="#105FA1"/>
<stop offset="1" stop-color="#1D2C5E"/>
</linearGradient>
<linearGradient id="paint7_linear" x1="39.1075" y1="39.7296" x2="47.9743" y2="39.7296" gradientUnits="userSpaceOnUse">
<stop stop-color="#3C5AA6"/>
<stop offset="0.9331" stop-color="#2B73B9"/>
<stop offset="1" stop-color="#2A75BB"/>
</linearGradient>
<linearGradient id="paint8_linear" x1="2.07445" y1="33.9216" x2="150.001" y2="33.9216" gradientUnits="userSpaceOnUse">
<stop stop-color="#3C5AA6"/>
<stop offset="0.9331" stop-color="#2B73B9"/>
<stop offset="1" stop-color="#2A75BB"/>
</linearGradient>
<clipPath id="clip0">
<rect width="150" height="70" fill="white"/>
</clipPath>
</defs>
</svg>
